<svg xmlns="http://www.w3.org/2000/svg" version="1.0" width="300.000000pt" height="300.000000pt" viewBox="0 0 300.000000 300.000000" preserveAspectRatio="xMidYMid meet">
<g transform="translate(0.000000,300.000000) scale(0.100000,-0.100000)" fill="#000000" stroke="none">
<path d="M1200 2861 c-65 -21 -185 -77 -217 -102 -26 -19 -103 -119 -103 -133 0 -5 10 4 22 20 13 16 26 31 30 32 5 2 8 9 8 16 0 46 254 176 344 176 11 0 35 -15 54 -32 31 -31 38 -33 95 -31 34 1 80 8 102 17 52 20 25 20 -40 1 -68 -21 -125 -11 -161 26 -32 34 -56 35 -134 10z"/>
<path d="M1603 2843 c15 -2 39 -2 55 0 15 2 2 4 -28 4 -30 0 -43 -2 -27 -4z"/>
<path d="M1760 2824 c146 -30 174 -39 212 -67 32 -23 38 -31 27 -38 -11 -8 -11 -9 3 -7 24 4 155 -145 186 -212 39 -82 43 -132 20 -220 -18 -69 -38 -112 -38 -82 0 7 -3 11 -7 11 -22 -4 -32 5 -56 49 -60 111 -152 172 -324 217 -195 51 -406 37 -548 -37 -32 -17 -151 -111 -175 -138 -3 -4 -37 -32 -77 -63 -40 -32 -84 -68 -98 -81 -14 -13 -35 -26 -46 -29 -16 -4 -19 -2 -13 16 6 22 6 22 -10 2 -25 -32 -20 -45 12 -35 122 39 182 52 182 40 0 -15 49 22 50 38 0 9 -5 10 -19 3 -10 -6 -22 -7 -26 -3 -5 4 -5 2 -2 -4 7 -13 -60 -30 -71 -19 -4 3 13 23 38 43 25 20 84 73 132 118 138 127 235 164 435 164 206 0 370 -52 476 -153 43 -40 51 -78 15 -70 -13 3 -29 10 -35 16 -9 6 -13 6 -13 -1 0 -10 242 -133 258 -132 4 1 -6 8 -22 16 -31 17 -31 17 -2 128 19 75 12 133 -26 208 -34 70 -185 244 -237 276 -36 21 -203 63 -245 61 -12 -1 8 -7 44 -15z"/>
<path d="M1625 2780 c7 -11 45 -20 45 -10 0 4 -11 10 -25 12 -13 3 -22 2 -20 -2z"/>
<path d="M1200 2775 c0 -6 -8 -11 -17 -12 -49 -2 -138 -15 -143 -20 -3 -3 24 -3 60 1 36 3 104 5 153 5 57 0 87 4 87 11 0 7 -13 9 -36 6 -20 -4 -41 -3 -47 1 -20 12 -37 12 -37 0 0 -7 -5 -5 -10 3 -5 8 -10 10 -10 5z"/>
<path d="M1720 2776 c0 -10 28 -13 41 -5 10 6 7 9 -13 9 -16 0 -28 -2 -28 -4z"/>
<path d="M1867 2773 c-4 -3 -23 -6 -42 -5 -19 1 -35 -2 -35 -7 0 -9 67 -13 93 -5 9 3 15 10 12 15 -7 11 -19 12 -28 2z"/>
<path d="M1444 2738 c3 -11 -2 -21 -14 -28 -22 -12 -33 -13 -27 -2 3 4 -1 13 -9 20 -12 11 -13 10 -10 -5 1 -10 6 -26 11 -36 7 -17 9 -17 27 2 10 12 25 21 32 21 8 0 20 8 27 17 12 15 12 16 -5 10 -12 -5 -23 -3 -29 5 -6 9 -7 8 -3 -4z"/>
<path d="M1292 2711 c2 -10 -6 -15 -21 -15 -13 -1 -26 -8 -28 -16 -3 -10 -2 -11 4 -4 4 6 15 10 24 9 9 -2 23 1 30 6 11 7 12 10 1 21 -11 11 -13 10 -10 -1z"/>
<path d="M1740 2690 c13 -23 22 -27 14 -5 -11 27 14 16 34 -16 12 -19 22 -27 26 -20 4 6 2 11 -3 11 -6 0 -11 5 -11 11 0 16 -31 38 -53 39 -15 0 -16 -3 -7 -20z"/>
<path d="M1561 2696 c27 -23 131 -87 244 -151 199 -111 293 -167 316 -188 19 -18 39 -16 39 4 0 6 -5 7 -10 4 -6 -3 -17 1 -26 9 -35 36 -183 128 -226 143 -10 3 -18 10 -18 15 0 5 5 6 12 2 7 -4 8 -3 4 5 -4 6 -11 9 -16 6 -14 -9 -82 23 -75 35 3 6 0 7 -9 4 -9 -3 -16 -2 -16 4 0 6 -14 13 -31 17 -17 4 -33 13 -36 21 -3 8 -14 14 -24 14 -10 0 -29 10 -41 22 -13 13 -28 22 -35 20 -6 -1 -14 2 -18 8 -3 5 -13 10 -22 10 -9 0 -14 -2 -12 -4z"/>
<path d="M1330 2650 c0 -5 -7 -7 -15 -4 -9 4 -15 0 -15 -10 0 -13 4 -14 25 -4 25 11 34 28 15 28 -5 0 -10 -4 -10 -10z"/>
<path d="M1814 2626 c-8 -8 -7 -15 1 -23 18 -17 36 -2 22 18 -9 12 -15 13 -23 5z"/>
<path d="M861 2615 c-1 -6 -18 -29 -39 -51 -49 -50 -86 -114 -112 -190 -23 -65 -38 -231 -24 -257 6 -10 9 20 9 81 0 98 27 218 46 206 5 -3 6 2 3 11 -7 18 33 82 89 142 22 22 37 47 34 55 -3 7 -6 8 -6 3z"/>
<path d="M1065 2611 c-3 -6 -3 -11 2 -11 4 0 2 -4 -6 -9 -10 -7 -7 -9 12 -8 21 2 23 5 14 17 -6 8 -12 16 -13 18 -1 2 -5 -1 -9 -7z"/>
<path d="M1213 2593 c-7 -2 -13 -12 -12 -21 0 -11 2 -12 6 -4 2 6 11 12 19 12 8 0 14 5 14 10 0 11 -7 12 -27 3z"/>
<path d="M2057 2594 c7 -3 9 -12 6 -20 -6 -17 22 -19 33 -2 4 7 3 8 -4 4 -7 -4 -12 -1 -12 8 0 9 -8 16 -17 15 -10 0 -13 -3 -6 -5z"/>
<path d="M1125 2535 c-15 -14 -26 -27 -24 -30 3 -2 18 7 34 20 15 14 26 27 24 30 -3 2 -18 -7 -34 -20z"/>
<path d="M997 2487 c-18 -22 -14 -38 5 -19 20 20 32 13 13 -8 -10 -11 -13 -20 -8 -20 6 0 16 7 23 15 9 11 9 18 -2 34 -13 19 -14 19 -31 -2z"/>
<path d="M2110 2480 c0 -3 4 -10 8 -17 6 -9 11 -8 19 5 9 15 7 18 -8 18 -11 0 -19 -3 -19 -6z"/>
<path d="M929 2471 c11 -7 10 -11 -5 -20 -11 -6 -14 -10 -9 -11 6 0 16 4 24 9 15 10 7 31 -12 31 -8 0 -7 -3 2 -9z"/>
<path d="M823 2445 c8 -16 11 -17 15 -5 3 8 10 18 15 22 6 3 -1 5 -15 5 -23 -2 -25 -5 -15 -22z"/>
<path d="M2147 2463 c-4 -7 -3 -14 2 -18 5 -3 8 -14 6 -25 -4 -21 9 -27 20 -10 3 6 1 10 -5 10 -6 0 -9 3 -7 8 8 12 -9 47 -16 35z"/>
<path d="M953 2426 c-13 -6 -23 -14 -23 -18 0 -13 13 -9 40 12 27 21 19 24 -17 6z"/>
<path d="M790 2330 c-13 -11 -19 -20 -13 -20 5 0 20 9 33 20 13 11 19 20 13 20 -5 0 -20 -9 -33 -20z"/>
<path d="M1396 2315 c-97 -20 -190 -52 -252 -88 -29 -17 -52 -33 -50 -35 2 -2 29 11 59 28 56 31 175 70 284 91 84 16 378 6 453 -15 71 -20 78 -12 8 10 -73 23 -403 29 -502 9z"/>
<path d="M2162 2318 c2 -6 10 -14 16 -16 7 -2 10 2 6 12 -7 18 -28 22 -22 4z"/>
<path d="M2555 2225 c-39 -14 -40 -14 -5 -8 41 7 82 22 60 22 -8 0 -33 -7 -55 -14z"/>
<path d="M2720 2223 c-59 -7 -147 -27 -165 -39 -11 -7 -41 -16 -68 -19 -26 -4 -50 -11 -53 -16 -3 -5 -16 -9 -29 -9 -13 0 -27 -4 -30 -10 -3 -5 -16 -10 -28 -10 -12 0 -31 -7 -41 -15 -10 -8 -22 -12 -27 -10 -9 6 -58 -14 -82 -34 -9 -8 -20 -11 -24 -8 -3 4 -1 7 5 7 7 0 12 5 12 12 0 7 -6 6 -17 -4 -41 -35 -423 -78 -423 -48 0 7 -6 10 -13 7 -8 -3 -36 -1 -63 3 -165 29 -183 34 -177 44 4 6 -2 3 -13 -6 -13 -12 -24 -14 -34 -8 -13 8 -13 10 -1 10 8 0 11 3 8 6 -4 4 -12 2 -19 -3 -28 -23 -190 -47 -206 -31 -11 11 -324 -7 -400 -23 -96 -21 -215 -104 -242 -169 -7 -16 -17 -30 -23 -30 -6 0 -8 -3 -4 -6 3 -3 -2 -25 -12 -47 -10 -23 -26 -78 -35 -122 -20 -90 -51 -187 -71 -225 -14 -24 -15 -23 -20 20 -1 17 -12 47 -25 71 -11 22 -1 61 14 52 6 -4 5 1 -3 10 -17 21 -32 22 -25 2 4 -8 1 -15 -6 -15 -6 0 -8 -5 -5 -10 4 -6 1 -9 -6 -8 -6 2 -14 -3 -16 -9 -3 -7 1 -13 7 -13 7 0 9 -8 5 -22 -6 -16 -4 -20 8 -15 12 4 14 0 11 -19 -3 -18 -1 -23 7 -18 8 5 10 -1 7 -19 -3 -15 -1 -24 3 -21 5 3 9 2 10 -3 0 -4 2 -17 4 -28 11 -55 -57 -85 -100 -45 l-22 21 -38 -58 c-95 -142 -134 -245 -206 -540 -28 -117 -36 -168 -30 -185 9 -22 9 -22 16 -3 4 11 11 30 16 43 5 13 9 32 9 42 0 11 4 20 8 20 5 0 7 12 5 28 -2 15 10 72 28 127 17 55 38 122 45 149 7 27 25 63 39 82 14 18 25 40 25 49 0 8 7 18 15 21 8 4 15 17 15 31 0 15 -4 22 -11 17 -6 -3 -3 8 5 25 9 17 21 31 26 31 5 0 12 10 16 22 9 31 31 51 39 37 4 -6 13 -8 21 -5 7 3 15 2 18 -2 3 -5 21 -6 41 -4 25 3 35 8 31 18 -3 7 -1 16 4 19 5 3 19 38 31 78 12 39 31 93 44 119 12 25 23 57 23 70 1 13 3 32 6 43 2 11 5 30 5 43 1 13 5 21 10 18 4 -3 7 10 4 28 -2 21 2 38 12 46 8 7 12 16 9 21 -3 5 0 9 5 9 6 0 11 5 11 10 0 6 13 24 30 40 16 16 28 35 27 42 -2 7 -2 10 0 6 7 -13 23 -9 23 5 0 14 44 43 111 75 72 33 182 41 514 40 43 0 85 6 109 16 22 9 42 13 45 9 3 -5 22 -8 41 -9 19 -1 62 -7 95 -14 33 -7 69 -13 81 -14 11 -1 26 -6 34 -11 25 -16 270 -9 333 10 31 9 71 15 88 13 16 -1 33 2 37 7 4 6 16 11 27 12 11 1 32 4 48 7 15 2 27 0 27 -6 0 -7 4 -7 13 -1 6 6 51 10 100 9 48 -1 87 3 87 8 0 4 7 3 16 -5 9 -7 37 -14 62 -15 l47 -2 -65 19 c-52 16 -89 19 -187 17 -66 -2 -119 0 -116 5 2 4 18 7 34 7 17 0 102 23 190 51 92 29 166 48 178 44 11 -3 22 -1 26 4 3 7 -1 9 -12 6 -10 -3 -7 0 6 7 20 10 25 9 38 -7 15 -20 15 -20 9 1 -5 17 -2 20 16 18 13 -1 28 -3 33 -3 12 -1 46 -26 81 -59 l24 -23 -20 -21 c-11 -12 -20 -28 -20 -36 0 -9 -6 -12 -17 -8 -10 4 -14 4 -11 0 4 -4 3 -15 -3 -26 -7 -13 -7 -23 0 -32 12 -14 -26 -103 -59 -139 -11 -11 -20 -24 -20 -28 0 -4 -25 -32 -55 -64 -76 -78 -75 -94 15 -186 39 -40 70 -79 70 -86 0 -7 3 -13 8 -13 4 0 18 -17 32 -38 14 -20 31 -42 39 -48 8 -6 11 -16 7 -22 -4 -7 -2 -12 3 -12 6 0 11 -6 11 -14 0 -8 3 -16 8 -18 4 -1 17 -23 28 -48 71 -150 104 -208 123 -215 24 -9 24 3 2 40 -25 43 -26 52 -4 34 15 -13 15 -12 4 8 -6 13 -16 22 -22 20 -6 -1 -17 15 -25 36 -15 42 -9 52 7 11 5 -15 12 -24 15 -21 3 3 -2 18 -11 34 -8 15 -35 62 -58 105 -23 42 -49 84 -58 95 -8 10 -27 36 -41 59 -32 49 -162 184 -178 184 -7 0 9 21 35 48 46 46 125 167 125 190 0 7 4 20 10 30 5 9 19 42 30 72 11 30 33 70 50 88 l30 33 -23 23 c-12 13 -25 21 -29 19 -5 -2 -8 0 -8 5 0 5 -17 17 -37 28 -21 10 -40 21 -43 24 -3 3 -16 4 -30 3z"/>
<path d="M2435 2190 c-13 -5 -14 -9 -5 -9 8 0 24 4 35 9 13 5 14 9 5 9 -8 0 -24 -4 -35 -9z"/>
<path d="M2285 2150 c-27 -7 -28 -8 -5 -8 14 0 34 3 45 8 25 11 2 11 -40 0z"/>
<path d="M905 2103 c-11 -2 -30 -9 -42 -15 -13 -6 -26 -8 -29 -5 -7 7 -64 -21 -75 -36 -3 -5 -8 -8 -10 -6 -9 5 -49 -13 -49 -22 0 -5 -9 -9 -19 -9 -10 0 -21 -7 -25 -15 -3 -8 -13 -15 -22 -15 -9 0 -33 -13 -54 -30 -21 -16 -41 -30 -44 -30 -4 0 -18 -12 -31 -26 -13 -14 -25 -24 -27 -22 -8 6 -37 -30 -30 -37 4 -5 2 -5 -4 -2 -7 4 -17 1 -23 -7 -9 -10 -8 -15 4 -20 8 -3 15 -1 15 5 0 6 5 7 11 4 6 -4 8 -12 6 -19 -3 -7 2 -23 10 -37 10 -16 12 -18 8 -4 -12 35 -9 95 5 95 5 0 7 -7 4 -15 -4 -8 -2 -15 4 -15 5 0 12 14 16 31 3 18 11 29 18 27 7 -3 21 6 32 19 10 13 21 22 23 19 3 -3 14 6 25 19 11 14 25 25 33 25 7 0 18 7 25 15 25 31 189 95 247 98 18 1 33 5 33 10 0 4 5 6 11 5 6 -2 14 3 16 10 5 12 -20 14 -62 5z"/>
<path d="M707 2094 c-3 -3 -3 -12 -1 -19 3 -8 -4 -16 -17 -20 -12 -4 -27 -12 -33 -17 -6 -5 -20 -16 -31 -24 -11 -9 3 -4 30 11 55 31 85 54 85 67 0 9 -24 11 -33 2z"/>
<path d="M975 2091 c-8 -15 5 -19 85 -26 88 -9 87 2 -2 21 -77 16 -75 16 -83 5z"/>
<path d="M2172 1942 c12 -28 23 -50 25 -48 6 5 -20 71 -33 86 -8 8 -5 -8 8 -38z"/>
<path d="M519 1951 c-50 -34 -149 -128 -149 -143 0 -5 20 13 45 40 25 28 70 67 100 88 50 34 62 44 52 44 -2 0 -24 -13 -48 -29z"/>
<path d="M711 1869 c-13 -34 -5 -40 29 -21 16 9 24 19 17 21 -6 2 -18 8 -24 13 -9 8 -15 4 -22 -13z"/>
<path d="M880 1871 c0 -12 -4 -19 -10 -16 -5 3 -10 4 -10 1 0 -3 9 -10 20 -16 19 -10 20 -9 16 16 -7 34 -16 44 -16 15z"/>
<path d="M1295 1865 c-16 -8 -23 -14 -15 -14 8 0 26 6 40 14 32 18 15 18 -25 0z"/>
<path d="M1433 1866 c0 -8 6 -12 14 -9 7 3 13 9 13 14 0 5 -6 9 -13 9 -8 0 -14 -6 -14 -14z"/>
<path d="M783 1836 c-23 -11 -31 -26 -13 -26 16 0 60 23 60 32 0 11 -19 8 -47 -6z"/>
<path d="M2373 1843 c-22 -8 -14 -23 13 -23 15 0 24 5 22 12 -5 14 -18 18 -35 11z"/>
<path d="M1979 1824 c18 -13 25 -14 34 -4 9 10 9 11 0 6 -6 -3 -14 -2 -18 4 -3 5 -14 10 -23 10 -13 0 -11 -4 7 -16z"/>
<path d="M2240 1833 c23 -10 35 -26 37 -53 7 -86 15 -150 23 -180 14 -55 23 -170 14 -170 -5 0 -8 -30 -7 -66 1 -54 -1 -63 -10 -49 -7 9 -20 17 -29 18 -9 2 -22 8 -29 14 -8 6 -24 14 -36 17 -25 8 -31 31 -10 39 10 4 10 6 0 6 -18 1 -16 15 8 68 11 25 21 52 22 62 1 22 -24 113 -34 126 -12 13 -11 28 1 20 6 -3 7 1 4 9 -3 9 -10 13 -15 10 -5 -3 -9 2 -9 10 0 8 -9 18 -20 21 -11 4 -18 11 -15 16 4 5 1 9 -4 9 -6 0 -11 7 -11 16 0 10 -6 14 -15 11 -8 -4 -17 -2 -20 4 -4 5 -10 7 -15 4 -5 -3 -11 -1 -15 5 -3 5 -14 10 -23 10 -11 -1 -6 -7 13 -17 99 -53 170 -193 146 -290 -7 -25 -23 -68 -38 -96 -24 -48 -26 -50 -39 -32 -8 10 -14 15 -14 9 0 -5 -11 -9 -25 -9 -14 0 -25 4 -25 9 0 6 -6 2 -13 -9 -11 -14 -22 -17 -53 -13 -21 4 -47 9 -56 13 -11 4 -18 3 -18 -4 0 -6 6 -11 14 -11 8 0 16 -5 18 -12 3 -8 18 -9 57 -1 110 22 255 -9 300 -65 16 -18 31 -30 34 -25 2 4 0 80 -6 168 -5 88 -11 196 -12 240 -2 44 -3 90 -4 103 -1 13 -5 20 -11 17 -5 -3 -10 0 -10 8 0 18 -32 47 -51 46 -11 0 -11 -2 1 -6z"/>
<path d="M912 1808 c-16 -16 -15 -25 2 -25 8 0 14 9 13 19 -2 21 0 21 -15 6z"/>
<path d="M1227 1800 c-8 -11 -17 -17 -22 -12 -5 4 -5 2 -2 -4 3 -6 -3 -18 -14 -28 -12 -10 -18 -20 -15 -23 3 -4 7 -4 9 -2 1 2 20 23 42 47 21 23 34 42 28 42 -7 0 -18 -9 -26 -20z"/>
<path d="M1700 1805 c6 -8 9 -19 5 -25 -3 -5 0 -19 8 -30 13 -19 14 -19 13 12 -1 18 -6 39 -13 46 -16 17 -28 15 -13 -3z"/>
<path d="M2459 1795 l30 -26 -26 -49 c-14 -27 -23 -55 -20 -62 3 -8 9 -1 16 16 13 31 41 57 53 50 11 -7 10 1 -4 33 -17 36 -44 63 -64 63 -10 0 -6 -8 15 -25z"/>
<path d="M1290 1779 c-19 -17 -26 -26 -15 -21 18 9 64 52 54 52 -2 0 -20 -14 -39 -31z"/>
<path d="M1639 1789 c-7 -12 -22 -32 -31 -44 -10 -13 -18 -26 -18 -29 0 -9 33 26 53 58 22 32 18 46 -4 15z"/>
<path d="M398 1790 c-9 -6 -24 -24 -32 -42 -18 -36 -19 -41 -7 -33 5 3 12 2 15 -3 2 -4 -4 -9 -15 -9 -23 -2 -25 21 -3 62 14 27 14 29 -1 14 -9 -8 -18 -32 -22 -52 -5 -33 -3 -37 16 -37 21 0 22 -1 4 -24 -10 -13 -21 -22 -24 -20 -3 2 -4 -8 -1 -21 2 -14 11 -25 19 -25 13 0 13 -3 3 -15 -15 -18 -7 -30 14 -22 12 5 13 11 3 36 -6 16 -15 28 -19 25 -4 -3 -8 0 -8 5 0 15 16 14 33 -3 12 -12 14 -9 14 23 1 79 3 102 11 97 13 -8 45 22 39 39 -7 17 -15 18 -39 5z"/>
<path d="M1826 1786 c-19 -9 -24 -15 -15 -18 11 -4 11 -9 -4 -26 -18 -20 -18 -20 2 -15 11 3 21 15 23 27 2 13 10 20 21 20 9 -1 17 4 17 12 0 17 -6 17 -44 0z"/>
<path d="M1770 1752 c0 -22 -3 -49 -6 -59 -5 -13 -4 -15 4 -8 12 11 19 91 9 101 -4 4 -7 -11 -7 -34z"/>
<path d="M1362 1765 c-16 -19 -3 -19 22 0 14 11 16 15 5 15 -8 -1 -20 -7 -27 -15z"/>
<path d="M1736 1723 c-11 -103 -14 -148 -9 -135 3 6 9 9 14 6 7 -4 8 7 4 28 -3 18 -2 56 3 85 5 29 6 57 2 63 -4 7 -10 -14 -14 -47z"/>
<path d="M1970 1771 c0 -5 6 -24 14 -42 l15 -34 -2 37 c-1 21 -8 40 -14 43 -7 2 -13 1 -13 -4z"/>
<path d="M736 1742 c-2 -4 -1 -14 4 -22 4 -7 6 -19 3 -27 -3 -7 0 -13 7 -13 6 0 8 -4 5 -10 -3 -5 -2 -10 4 -10 5 0 13 5 16 10 3 6 13 10 21 10 16 0 20 -45 4 -55 -8 -5 -7 -11 1 -21 6 -7 15 -11 20 -8 5 3 9 0 9 -7 0 -7 2 -10 5 -7 3 3 1 18 -5 33 -8 22 -7 33 5 51 20 31 19 32 -12 36 -18 2 -27 8 -25 17 3 12 0 12 -12 2 -12 -10 -16 -8 -21 8 -6 21 -20 27 -29 13z"/>
<path d="M1867 1705 c10 -22 24 -35 35 -35 11 0 16 5 13 10 -4 6 -11 8 -16 4 -5 -3 -14 8 -20 25 -6 17 -15 31 -20 31 -5 0 -1 -16 8 -35z"/>
<path d="M421 1720 c0 -8 13 -31 29 -50 16 -19 30 -29 30 -22 0 6 -3 12 -8 12 -4 0 -13 10 -21 21 -11 18 -11 23 1 31 10 8 9 9 -4 5 -9 -3 -19 -1 -22 6 -3 7 -5 6 -5 -3z"/>
<path d="M1500 1714 c0 -8 9 -14 20 -14 11 0 20 4 20 9 0 5 -9 11 -20 14 -13 3 -20 0 -20 -9z"/>
<path d="M1107 1677 c5 -45 31 -136 43 -152 4 -5 18 -41 31 -80 13 -39 25 -62 27 -52 2 11 10 17 20 14 10 -2 16 -9 15 -15 -4 -17 18 -15 58 6 66 33 259 27 352 -13 10 -4 17 -3 17 3 0 6 -13 13 -30 17 -27 6 -35 15 -31 38 0 4 -3 7 -9 7 -5 0 -10 -4 -10 -10 0 -13 -33 -13 -47 1 -8 8 -13 8 -17 0 -4 -6 -12 -11 -17 -11 -6 0 -7 5 -3 12 5 8 2 9 -12 3 -10 -5 -46 -10 -79 -11 -49 -2 -53 -1 -25 5 31 7 32 9 8 10 -40 2 -45 21 -6 22 26 1 28 3 8 6 -14 2 -32 7 -40 10 -8 3 -23 7 -33 8 -15 1 -14 -2 5 -22 21 -22 21 -24 3 -17 -20 7 -20 7 -1 -14 19 -22 19 -22 -7 -22 -15 0 -27 4 -27 10 0 5 -16 26 -35 46 -19 19 -35 43 -35 52 0 14 -2 14 -9 3 -5 -7 -6 -23 -3 -34 3 -12 7 -16 10 -9 2 7 16 -5 33 -28 30 -41 36 -60 19 -60 -5 0 -10 5 -10 11 0 6 -7 8 -16 5 -8 -3 -13 -2 -10 3 3 4 -1 17 -9 27 -13 18 -14 18 -9 -2 4 -14 0 -23 -10 -27 -11 -4 -16 -1 -16 12 0 10 -18 67 -41 126 -22 59 -38 114 -35 122 3 8 0 21 -8 28 -12 12 -13 8 -9 -28z"/>
<path d="M2410 1710 c-8 -5 -30 -10 -47 -10 -18 0 -33 -4 -33 -10 0 -18 57 -11 81 10 25 20 24 26 -1 10z"/>
<path d="M2093 1682 c13 -14 17 -28 12 -44 -7 -22 -7 -23 8 -3 13 17 14 23 3 39 -7 11 -19 22 -27 24 -10 3 -8 -2 4 -16z"/>
<path d="M622 1629 c4 -34 16 -77 25 -97 19 -40 120 -148 130 -138 3 3 11 2 17 -3 6 -5 24 -11 39 -13 23 -2 32 3 49 32 l21 35 -22 -22 c-27 -28 -34 -28 -88 -2 -78 38 -163 169 -163 251 0 10 -4 18 -8 18 -5 0 -5 -27 0 -61z"/>
<path d="M894 1676 c-15 -16 -25 -46 -15 -46 9 0 36 48 30 54 -2 2 -9 -1 -15 -8z"/>
<path d="M1269 1663 c-21 -18 -34 -24 -37 -15 -2 6 -13 12 -25 12 -18 -1 -16 -4 13 -20 19 -11 29 -19 23 -20 -18 0 -16 -30 2 -30 8 0 15 8 15 18 0 20 27 55 55 70 16 9 17 11 3 12 -9 0 -31 -12 -49 -27z"/>
<path d="M1453 1680 c-12 -5 -25 -15 -30 -23 -9 -16 -63 -32 -63 -18 0 5 -8 12 -17 15 -17 7 -17 6 -1 -10 16 -16 14 -19 -30 -47 -62 -39 -91 -77 -59 -77 8 0 20 -11 27 -25 7 -14 18 -25 23 -25 6 0 2 9 -8 20 -10 11 -15 23 -12 27 4 3 2 12 -5 20 -8 11 -8 17 2 26 10 10 12 9 7 -5 -4 -12 -1 -18 8 -18 22 0 27 18 8 30 -15 9 -15 11 -2 6 9 -2 25 4 36 13 32 30 60 41 103 41 33 0 48 -6 72 -30 36 -36 52 -31 18 5 -13 14 -41 30 -62 36 -39 10 -44 29 -8 29 10 0 22 5 25 10 7 12 -2 12 -32 0z"/>
<path d="M2006 1671 c-3 -5 1 -11 9 -15 9 -3 15 0 15 9 0 16 -16 20 -24 6z"/>
<path d="M1520 1660 c0 -5 15 -10 33 -9 27 0 29 2 12 9 -28 12 -45 12 -45 0z"/>
<path d="M1954 1655 c-9 -22 1 -29 15 -11 8 10 9 16 1 21 -5 3 -13 -1 -16 -10z"/>
<path d="M670 1646 c6 -8 14 -29 17 -47 5 -33 56 -89 81 -89 8 0 12 -6 8 -15 -6 -17 9 -21 19 -4 4 5 0 18 -9 28 -9 10 -16 23 -16 29 0 7 -6 12 -13 12 -7 0 -30 23 -51 50 -21 28 -40 50 -43 50 -3 0 0 -7 7 -14z"/>
<path d="M1593 1640 c-4 -15 -11 -19 -27 -15 -19 5 -19 5 -3 -5 10 -6 30 -12 46 -12 26 -1 42 -28 16 -28 -8 0 -10 -10 -7 -25 5 -31 32 -33 33 -2 0 12 2 32 3 44 2 13 1 21 -2 18 -10 -10 -43 17 -38 31 3 8 1 14 -5 14 -6 0 -13 -9 -16 -20z"/>
<path d="M1682 1636 c1 -10 8 -17 13 -17 15 1 12 24 -3 29 -9 3 -13 -2 -10 -12z"/>
<path d="M1184 1617 c-8 -18 -8 -24 3 -24 7 0 13 11 13 24 0 29 -2 29 -16 0z"/>
<path d="M2148 1600 c2 -16 0 -30 -4 -30 -5 0 -9 -15 -9 -32 0 -24 -4 -32 -15 -30 -10 1 -9 -2 4 -13 29 -22 31 -19 28 30 -2 25 0 45 5 45 5 0 8 14 5 30 -2 17 -7 30 -11 30 -4 0 -6 -13 -3 -30z"/>
<path d="M882 1590 c1 -17 5 -33 10 -36 4 -3 7 11 6 30 -4 44 -17 48 -16 6z"/>
<path d="M1845 1610 c3 -5 -1 -10 -9 -10 -9 0 -16 -4 -16 -10 0 -14 22 -12 43 4 23 17 22 26 -4 26 -11 0 -17 -4 -14 -10z"/>
<path d="M1404 1598 c-23 -5 -50 -18 -60 -29 -18 -20 -18 -21 6 -40 32 -24 74 -32 144 -27 31 1 56 0 56 -4 0 -5 -21 -8 -46 -8 -37 0 -45 -3 -40 -15 4 -10 -2 -19 -17 -25 -22 -9 -22 -9 -1 -9 12 -1 24 6 28 14 3 9 18 15 38 15 58 0 63 12 29 62 -48 71 -68 80 -137 66z m79 -20 c12 -7 24 -14 25 -15 2 -1 1 -11 -3 -22 -5 -18 -14 -21 -53 -20 -79 1 -133 35 -86 53 19 7 34 -1 34 -19 0 -7 7 -15 15 -19 14 -5 21 16 16 47 -2 11 27 8 52 -5z"/>
<path d="M1925 1602 c-28 -10 -75 -43 -75 -53 0 -5 13 0 29 12 74 54 187 -2 206 -102 5 -24 -11 -25 -24 -1 -6 9 -11 12 -11 6 0 -7 -6 -14 -14 -17 -7 -3 -13 0 -13 6 1 35 -4 57 -13 57 -5 0 -10 -7 -10 -15 0 -18 -52 -33 -58 -17 -2 7 -8 12 -13 12 -6 0 -7 -5 -3 -11 4 -7 -2 -9 -17 -7 -26 3 -40 38 -16 38 8 0 18 7 21 16 5 12 16 15 41 12 42 -5 44 -1 9 12 -28 11 -53 2 -93 -34 -17 -15 -25 -17 -28 -9 -4 10 -8 9 -19 -1 -16 -16 -10 -42 12 -50 9 -4 12 -2 8 5 -4 7 1 9 12 7 11 -2 18 -10 17 -16 -2 -7 4 -12 13 -12 8 0 13 3 10 8 -2 4 22 7 55 7 61 0 88 -18 43 -29 -14 -4 -22 -11 -19 -16 4 -6 18 -2 35 10 19 14 31 17 35 9 4 -6 16 -9 26 -6 11 3 19 0 19 -8 0 -8 9 -10 28 -7 19 4 22 7 9 10 -15 3 -16 6 -5 20 10 12 10 14 1 8 -20 -11 -36 3 -22 20 8 10 8 14 0 14 -6 0 -17 12 -24 28 -14 33 -63 80 -95 93 -26 10 -28 10 -57 1z"/>
<path d="M1783 1584 c-17 -7 -4 -34 13 -27 8 3 14 11 14 19 0 14 -6 16 -27 8z"/>
<path d="M1720 1550 c0 -13 5 -18 15 -14 8 4 15 10 15 14 0 4 -7 10 -15 14 -10 4 -15 -1 -15 -14z"/>
<path d="M840 1541 c0 -6 4 -11 10 -11 5 0 12 -11 16 -25 l6 -26 15 21 c16 22 14 30 -9 34 -7 1 -19 5 -25 9 -8 5 -13 4 -13 -2z"/>
<path d="M1120 1547 c-1 -21 32 -117 41 -117 5 0 9 1 9 3 0 9 -49 121 -50 114z"/>
<path d="M1641 1511 c-9 -6 -6 -10 10 -14 28 -8 34 -3 16 11 -7 6 -19 7 -26 3z"/>
<path d="M1768 1513 c-10 -2 -18 -9 -18 -14 0 -13 12 -11 34 6 20 15 16 17 -16 8z"/>
<path d="M1710 1498 c0 -18 66 -56 77 -44 3 3 1 6 -6 6 -7 0 -9 5 -6 10 5 9 -17 14 -30 8 -2 -2 -11 6 -19 17 -13 17 -15 18 -16 3z"/>
<path d="M266 1471 c-20 -22 -15 -54 15 -91 18 -24 18 -22 -2 23 -20 46 -20 50 -3 68 9 10 15 19 12 19 -3 0 -13 -8 -22 -19z"/>
<path d="M816 1474 c-4 -10 0 -24 9 -33 13 -14 15 -13 15 4 0 11 -4 26 -9 33 -6 11 -10 10 -15 -4z"/>
<path d="M1617 1476 c-4 -9 5 -19 23 -26 16 -7 27 -17 26 -23 -2 -7 -1 -9 1 -5 2 4 19 4 36 2 18 -3 43 -1 56 4 20 7 14 9 -29 10 -29 0 -56 5 -59 10 -3 5 -14 11 -24 15 -10 4 -15 11 -12 17 3 5 2 10 -3 10 -6 0 -12 -6 -15 -14z"/>
<path d="M874 1465 c-19 -14 -18 -14 4 -15 13 0 22 6 22 15 0 19 -1 19 -26 0z"/>
<path d="M2360 1445 c1 -17 7 -75 14 -130 8 -55 11 -103 7 -107 -10 -11 -51 2 -51 16 0 27 -66 73 -125 89 -108 28 -174 30 -240 7 -32 -11 -68 -26 -79 -33 -23 -14 -33 -15 -93 -3 -30 5 -43 13 -43 24 -1 17 -30 63 -30 47 0 -4 -8 -1 -18 8 -14 12 -25 14 -47 8 -17 -5 -23 -10 -14 -10 9 -1 31 -14 49 -31 37 -35 35 -60 -10 -102 -76 -71 -288 -63 -375 13 -87 76 1 147 184 150 l76 1 -50 9 c-61 11 -121 4 -194 -23 -30 -11 -71 -21 -92 -22 -34 -2 -38 0 -43 28 -5 22 -9 27 -15 18 -13 -22 0 -62 26 -79 22 -15 25 -14 38 3 7 10 17 16 21 12 4 -4 1 -14 -5 -22 -18 -21 -6 -50 34 -84 18 -17 31 -34 27 -38 -4 -4 1 -4 10 -1 11 4 21 0 27 -11 8 -13 10 -14 11 -3 0 12 3 12 12 3 7 -7 26 -12 43 -13 28 0 28 -1 8 -9 -13 -5 -23 -12 -23 -15 0 -4 4 -4 9 -1 5 3 57 8 115 11 92 5 105 4 100 -10 -3 -8 -10 -12 -15 -9 -16 9 -10 -2 20 -40 17 -21 32 -32 36 -26 3 5 1 10 -4 10 -6 0 -11 5 -11 11 0 8 4 8 14 0 8 -7 13 -21 11 -32 -2 -10 1 -19 7 -19 6 0 8 -9 5 -20 -3 -11 -2 -20 3 -20 12 0 20 72 10 85 -6 7 -7 15 -3 19 4 4 0 4 -10 0 -10 -3 -17 -1 -17 5 0 6 10 11 23 11 21 1 20 3 -10 29 -36 30 -41 41 -18 41 8 0 15 4 15 8 0 19 76 48 113 44 31 -4 37 -8 37 -28 0 -14 -5 -23 -12 -22 -7 2 -12 -3 -10 -10 1 -8 -9 -23 -23 -34 -14 -11 -25 -28 -25 -38 0 -10 -4 -21 -9 -24 -5 -4 -1 -23 9 -44 9 -20 19 -44 22 -52 3 -10 6 -8 10 8 4 14 -1 31 -15 49 -18 22 -19 26 -4 20 13 -5 17 -1 17 20 0 21 2 23 15 13 12 -10 16 -10 20 1 2 8 3 21 2 29 -1 8 3 17 8 20 6 3 11 -8 13 -24 3 -21 6 -26 12 -16 7 12 15 11 47 -4 36 -17 37 -19 18 -32 -10 -8 -27 -12 -37 -8 -10 3 -18 1 -18 -4 0 -6 -9 -8 -20 -5 -12 3 -20 0 -20 -7 0 -15 49 -9 98 11 31 13 35 12 48 -5 16 -23 19 -14 4 15 -6 11 -7 19 -1 19 5 0 12 -8 15 -17 6 -15 8 -15 16 -3 8 12 10 12 16 -3 3 -9 3 -29 0 -43 -6 -21 -3 -27 15 -31 20 -6 21 -7 5 -19 -23 -16 -17 -49 9 -49 15 0 20 7 21 30 0 17 -4 33 -9 37 -6 3 -11 15 -12 25 0 10 -4 23 -8 29 -4 8 7 11 34 9 22 -1 42 2 45 7 3 4 10 6 15 3 5 -4 9 -1 9 5 0 6 4 9 8 6 12 -7 78 18 102 39 11 10 20 14 20 9 0 -5 5 -1 11 9 5 9 17 17 24 17 8 0 15 6 15 14 0 8 7 17 16 20 11 4 15 2 11 -8 -4 -10 0 -14 13 -13 10 1 17 4 15 8 -3 3 4 14 14 24 19 16 20 59 4 105 -5 16 -12 62 -16 117 -1 18 -8 38 -14 45 -10 9 -13 6 -13 -17z m-173 -140 c105 -31 132 -84 71 -142 -95 -89 -322 -83 -392 11 -19 25 -19 29 -6 53 8 14 26 34 40 45 24 18 26 18 65 -1 22 -10 54 -22 70 -25 26 -5 25 -3 -10 14 -22 10 -49 22 -60 25 -18 6 -17 8 10 20 40 19 149 19 212 0z m143 -115 c0 -5 -9 -14 -21 -20 -19 -11 -20 -10 -9 9 11 22 30 29 30 11z"/>
<path d="M2112 1264 c-8 -30 -19 -47 -34 -53 -15 -5 -17 -9 -7 -13 8 -3 25 -1 38 3 19 7 21 12 12 23 -10 12 -9 13 7 9 11 -2 23 0 26 5 4 6 -3 8 -15 5 -15 -4 -20 -2 -18 6 3 7 8 12 12 12 4 -1 28 -1 54 -1 44 0 46 -1 27 -16 -18 -15 -18 -15 4 -10 23 4 23 4 6 -15 -9 -10 -22 -19 -28 -19 -6 0 -4 5 4 10 25 16 -2 11 -59 -10 -29 -12 -56 -19 -59 -16 -2 3 -17 -1 -33 -9 -15 -8 -34 -15 -41 -14 -7 0 -3 4 10 9 29 12 28 26 -2 32 -19 4 -25 0 -29 -18 -2 -13 -2 -26 1 -29 11 -11 139 -4 176 10 22 8 43 12 47 9 14 -8 63 42 56 59 -8 22 -47 46 -100 62 l-43 13 -12 -44z"/>
<path d="M1934 1253 c2 -9 8 -19 14 -21 7 -2 10 -7 7 -12 -3 -5 3 -7 12 -5 10 2 25 4 33 4 10 1 9 5 -6 14 -12 6 -31 18 -42 24 -17 11 -20 10 -18 -4z"/>
<path d="M1895 1180 c7 -11 76 -42 81 -37 2 2 -17 13 -42 25 -25 12 -43 18 -39 12z"/>
<path d="M1843 1413 c1 -12 3 -20 6 -18 2 3 10 -3 17 -13 7 -9 14 -12 14 -6 0 7 -9 22 -19 35 l-20 24 2 -22z"/>
<path d="M1080 1420 c-1 -3 -4 -15 -5 -28 -1 -15 1 -20 7 -14 6 6 8 18 5 28 -3 11 -6 17 -7 14z"/>
<path d="M1760 1416 c0 -10 28 -13 41 -5 10 6 7 9 -13 9 -16 0 -28 -2 -28 -4z"/>
<path d="M1896 1412 c-2 -4 7 -9 22 -10 14 -1 29 -7 33 -13 5 -8 8 -8 13 0 4 6 2 11 -4 11 -6 0 -9 3 -7 8 3 4 -8 8 -24 9 -15 1 -30 -1 -33 -5z"/>
<path d="M1735 1381 c-3 -6 8 -8 27 -5 22 4 40 0 53 -11 11 -9 13 -13 5 -10 -8 4 -1 -4 15 -19 34 -29 53 -33 61 -12 3 9 12 12 21 9 11 -5 14 -3 9 6 -5 7 -14 10 -22 7 -7 -3 -16 -1 -19 4 -4 6 -13 10 -22 10 -13 0 -14 -2 -2 -17 13 -16 12 -17 -3 -4 -10 7 -15 17 -13 22 3 4 -3 13 -14 18 -24 14 -88 14 -96 2z"/>
<path d="M1472 1369 c-13 -5 -49 -11 -80 -13 -31 -2 -59 -5 -61 -5 -3 -1 1 -7 7 -13 10 -10 15 -10 21 1 7 10 13 10 29 2 24 -13 43 -15 24 -2 -9 5 0 10 28 14 24 3 47 10 53 16 13 13 10 13 -21 0z"/>
<path d="M1505 1361 c-9 -16 -66 -41 -92 -41 -12 0 -23 -5 -23 -10 0 -15 48 -2 97 26 31 18 44 21 49 12 4 -6 2 -14 -4 -16 -6 -2 -9 -9 -6 -16 3 -8 -2 -16 -11 -20 -9 -3 -14 -10 -10 -16 3 -5 15 0 26 11 12 12 36 27 55 35 31 13 38 13 64 -3 17 -9 30 -21 30 -25 0 -4 4 -8 10 -8 22 0 -5 31 -43 49 -69 32 -87 35 -87 14 -1 -17 -1 -17 -14 0 -15 19 -32 22 -41 8z"/>
<path d="M2353 1325 c0 -22 2 -30 4 -17 2 12 2 30 0 40 -3 9 -5 -1 -4 -23z"/>
<path d="M1293 1314 c-11 -29 31 -53 127 -70 22 -4 23 -3 5 5 -18 8 -17 10 10 11 26 0 28 2 12 11 -13 7 -22 7 -31 0 -8 -6 -21 -8 -31 -5 -13 5 -14 9 -3 15 9 6 6 9 -10 9 -13 0 -21 -4 -18 -9 4 -5 -3 -7 -14 -4 -19 5 -24 14 -21 41 3 18 -19 15 -26 -4z"/>
<path d="M1597 1285 c-9 -8 -22 -15 -30 -15 -10 0 -13 -7 -10 -20 6 -23 23 -27 23 -5 0 16 34 38 44 28 3 -3 6 -1 6 5 0 19 -18 23 -33 7z"/>
<path d="M1648 1263 c-10 -2 -18 -11 -18 -19 0 -12 4 -12 25 2 36 23 34 28 -7 17z"/>
<path d="M986 1204 c-4 -15 -3 -30 1 -35 4 -4 9 8 10 27 2 41 -2 44 -11 8z"/>
<path d="M1730 1201 c0 -11 5 -23 10 -26 6 -3 10 3 10 14 0 11 -4 23 -10 26 -5 3 -10 -3 -10 -14z"/>
<path d="M1272 1060 c-10 -16 -10 -20 1 -20 6 0 18 9 25 20 10 16 10 20 -1 20 -6 0 -18 -9 -25 -20z"/>
<path d="M1910 1013 c0 -11 43 -22 57 -15 12 7 8 10 -21 14 -20 2 -36 3 -36 1z"/>
<path d="M1940 933 c8 -3 21 -10 28 -16 9 -7 11 -6 6 7 -3 9 -16 16 -28 15 -14 0 -16 -2 -6 -6z"/>
<path d="M1425 880 c3 -48 23 -69 21 -21 -1 16 -4 27 -8 25 -4 -2 -9 6 -11 18 -2 13 -3 3 -2 -22z"/>
<path d="M1175 891 c-3 -11 1 -49 10 -86 8 -37 13 -71 9 -76 -3 -5 2 -9 10 -9 18 0 21 -16 6 -25 -5 -3 -10 -11 -10 -17 0 -7 6 -6 15 2 13 10 15 9 17 -11 1 -13 2 -31 4 -39 1 -8 2 -21 3 -29 1 -8 7 -11 17 -7 9 3 12 2 9 -5 -4 -5 -1 -24 6 -40 9 -22 14 -27 20 -17 5 7 8 22 8 33 0 20 0 20 -9 0 -10 -24 -12 -22 -15 30 -1 22 -18 76 -38 120 -24 55 -37 98 -39 138 -3 58 -12 72 -23 38z"/>
<path d="M2030 906 c0 -3 10 -14 22 -26 12 -11 19 -23 15 -26 -4 -4 -16 1 -27 11 -11 10 -23 15 -27 12 -3 -4 -3 -7 0 -7 4 0 -6 -19 -23 -42 -16 -22 -30 -48 -30 -56 0 -8 -6 -12 -15 -8 -23 8 -18 -8 16 -50 28 -36 31 -44 26 -92 -3 -29 -10 -59 -16 -66 -6 -7 -9 -16 -6 -19 3 -4 2 -5 -1 -2 -4 2 -16 -2 -28 -10 -21 -16 -58 -20 -69 -8 -4 3 -18 8 -32 10 -62 8 -72 10 -82 16 -7 4 -15 3 -18 -3 -5 -8 -11 -7 -21 1 -11 9 -14 8 -14 -4 0 -10 7 -15 20 -12 11 2 20 -1 20 -7 0 -6 11 -8 25 -6 14 3 28 1 31 -3 3 -5 14 -9 24 -9 15 0 19 -6 18 -25 -1 -14 -7 -24 -14 -21 -6 2 -17 0 -25 -6 -11 -8 -10 -9 4 -4 9 3 17 1 17 -4 0 -15 -21 -23 -33 -11 -6 6 -18 11 -26 11 -11 0 -10 -3 4 -14 18 -13 18 -13 -1 -24 -17 -10 -17 -11 -2 -12 24 0 102 76 93 90 -5 9 -1 10 14 5 15 -5 29 -1 42 11 17 15 22 16 29 4 7 -11 11 -11 24 -1 9 8 16 17 16 22 0 5 11 27 24 48 18 29 22 41 13 50 -6 6 -8 11 -4 11 3 0 -5 23 -18 52 -25 54 -25 71 0 61 11 -4 15 2 15 24 0 16 6 38 14 48 13 18 23 15 232 -70 121 -48 236 -97 257 -107 32 -16 37 -16 37 -3 0 27 41 138 61 166 27 39 89 46 161 19 107 -40 125 -96 69 -217 -51 -109 -120 -213 -149 -224 -34 -13 -121 13 -151 45 -14 15 -24 39 -25 56 -1 30 -4 32 -245 139 -135 60 -251 107 -258 104 -16 -6 -12 -28 5 -28 5 0 14 -3 18 -7 4 -5 18 -8 31 -8 13 0 23 -4 23 -10 0 -5 11 -12 25 -16 14 -3 25 -10 25 -15 0 -5 6 -9 14 -9 7 0 19 -7 26 -15 7 -9 16 -12 19 -7 10 15 92 -26 98 -48 6 -24 11 -25 34 -4 16 14 19 14 35 -10 13 -21 15 -39 10 -84 -4 -39 -3 -52 4 -42 5 8 10 24 10 35 1 23 22 55 37 55 15 0 53 -36 53 -51 0 -27 46 -79 80 -90 19 -7 40 -15 46 -20 28 -22 164 32 164 65 0 10 64 111 72 114 5 2 6 7 3 12 -5 9 40 106 53 114 11 7 2 135 -10 140 -2 0 -12 7 -23 13 -43 27 -78 45 -93 48 -10 2 -31 8 -48 13 -17 6 -37 6 -44 2 -7 -4 -21 -5 -31 -3 -10 3 -19 0 -19 -6 0 -6 -5 -11 -10 -11 -23 0 -60 -51 -71 -97 -20 -77 -22 -77 -145 -26 -60 24 -117 46 -127 47 -9 1 -23 8 -29 14 -7 7 -22 12 -34 12 -12 0 -24 5 -26 11 -2 5 -10 11 -18 13 -51 9 -105 44 -105 69 0 6 -8 13 -17 15 -10 2 -18 1 -18 -2z"/>
<path d="M1497 876 c-8 -8 -17 -13 -20 -10 -3 3 -4 -1 -3 -10 3 -22 16 -32 16 -13 0 10 6 17 14 17 18 0 30 17 17 24 -5 4 -16 0 -24 -8z"/>
<path d="M1927 876 c-4 -10 -5 -21 -2 -24 9 -9 17 6 13 25 -3 17 -4 17 -11 -1z"/>
<path d="M1570 845 c0 -8 2 -15 4 -15 2 0 11 -3 20 -6 23 -9 20 9 -4 24 -17 10 -20 10 -20 -3z"/>
<path d="M1873 805 c0 -22 2 -30 4 -17 2 12 2 30 0 40 -3 9 -5 -1 -4 -23z"/>
<path d="M1285 810 c27 -12 35 -12 35 0 0 6 -12 10 -27 9 -25 0 -26 -1 -8 -9z"/>
<path d="M2660 804 c0 -31 157 -76 167 -48 2 7 -16 21 -39 33 -51 24 -128 34 -128 15z"/>
<path d="M1156 785 c24 -39 24 -40 24 -28 0 6 -9 21 -21 34 l-20 24 17 -30z"/>
<path d="M1372 772 c1 -23 12 -35 61 -68 86 -56 142 -80 241 -103 57 -14 93 -18 108 -12 26 10 32 11 54 11 8 0 12 5 8 11 -12 20 29 80 59 86 15 3 27 11 27 17 0 6 5 4 10 -4 5 -8 10 -10 10 -5 0 17 -21 34 -36 28 -8 -3 -12 -8 -9 -12 2 -4 -22 -21 -53 -37 -63 -32 -73 -41 -65 -61 4 -9 -3 -13 -22 -13 -21 0 -26 4 -23 20 3 19 -3 21 -82 24 -66 3 -102 11 -158 34 -94 39 -129 61 -112 72 11 7 10 11 -3 24 -14 15 -16 14 -15 -12z"/>
<path d="M1583 789 c3 -9 0 -22 -6 -28 -8 -8 -8 -11 1 -11 19 0 27 30 12 43 -10 9 -12 9 -7 -4z"/>
<path d="M1299 767 c0 -1 -2 -10 -4 -20 -3 -15 -1 -16 11 -6 11 9 15 8 20 -5 3 -9 2 -22 -2 -29 -5 -7 -1 -4 9 6 18 21 23 42 7 32 -5 -3 -10 -2 -10 3 0 8 -28 26 -31 19z"/>
<path d="M2617 744 c-18 -24 -18 -26 -1 -38 15 -12 16 -17 5 -44 -7 -16 -22 -32 -33 -35 -11 -3 -17 -10 -13 -17 5 -8 11 -8 19 -1 7 6 15 8 18 5 3 -3 9 7 12 21 7 28 32 29 30 1 -2 -18 11 -22 22 -5 3 6 1 15 -6 19 -8 5 -9 10 -2 14 6 3 13 2 17 -4 3 -5 15 -10 26 -10 11 0 17 5 14 10 -3 6 -15 10 -26 10 -19 0 -22 19 -4 33 6 4 -2 5 -17 1 -20 -4 -29 -1 -37 14 -6 11 -8 28 -5 36 9 23 2 19 -19 -10z m47 -57 c4 4 4 0 0 -10 -8 -23 -10 -22 -28 15 -21 42 -20 49 2 15 10 -15 22 -24 26 -20z"/>
<path d="M1753 705 c0 -16 2 -24 4 -17 3 6 8 10 12 8 4 -3 8 1 8 9 0 8 -4 12 -8 9 -4 -2 -9 2 -12 8 -2 7 -4 0 -4 -17z"/>
<path d="M2136 715 c10 -8 26 -14 34 -15 8 0 2 7 -14 15 -36 19 -45 19 -20 0z"/>
<path d="M2717 700 c-16 -19 -16 -20 6 -20 33 0 48 -13 37 -30 -8 -13 -10 -13 -10 0 0 11 -3 11 -12 2 -10 -10 -10 -15 2 -22 13 -9 13 -11 0 -20 -12 -8 -12 -10 5 -10 14 0 20 7 21 26 2 27 10 41 20 32 3 -3 1 -23 -5 -44 -8 -29 -19 -43 -41 -52 -16 -8 -28 -18 -24 -23 3 -5 -1 -12 -10 -15 -8 -3 -12 -12 -10 -19 3 -7 1 -16 -5 -20 -6 -3 -11 -15 -11 -26 0 -18 2 -19 15 -5 8 8 15 22 15 31 0 11 6 15 18 11 14 -5 22 1 31 21 10 22 10 25 -2 15 -8 -7 -17 -9 -20 -5 -4 3 7 14 23 24 17 11 30 23 30 29 0 5 8 10 17 10 15 0 15 2 -2 14 -18 13 -18 14 4 21 17 5 20 10 11 20 -8 10 -8 19 0 34 9 17 8 21 -4 21 -9 0 -13 -6 -10 -15 7 -16 -21 -14 -57 5 -17 10 -19 14 -8 21 8 5 9 9 4 9 -6 0 -18 -9 -28 -20z"/>
<path d="M1380 676 c0 -8 5 -18 10 -21 6 -3 10 3 10 14 0 12 -4 21 -10 21 -5 0 -10 -6 -10 -14z"/>
<path d="M2705 630 c-3 -5 -3 -14 0 -20 3 -5 1 -10 -4 -10 -6 0 -11 -6 -11 -14 0 -19 37 -27 50 -11 8 10 6 13 -7 11 -14 -1 -17 5 -15 27 4 28 -2 35 -13 17z"/>
<path d="M1404 605 c-10 -8 -14 -15 -7 -15 6 0 15 5 18 10 4 6 11 7 17 4 7 -4 8 -2 4 4 -9 15 -8 15 -32 -3z"/>
<path d="M2568 588 c14 -15 19 -28 13 -32 -5 -4 -17 4 -25 16 -9 12 -16 18 -16 13 1 -18 28 -47 38 -41 6 3 13 -1 16 -10 4 -10 13 -14 24 -10 14 5 14 3 -2 -9 -11 -8 -15 -15 -9 -15 6 0 8 -11 5 -25 -4 -22 -7 -24 -21 -13 -14 12 -15 11 -2 -5 8 -9 16 -16 18 -13 3 2 20 -2 39 -10 19 -8 34 -12 34 -9 0 3 -14 11 -30 17 -25 8 -30 15 -28 39 1 16 8 31 15 33 17 7 29 -14 13 -24 -8 -5 -9 -10 -2 -14 6 -4 15 2 21 12 7 14 5 22 -9 32 -10 8 -17 16 -15 20 2 3 -7 19 -20 34 -15 18 -25 23 -28 14 -3 -10 -10 -8 -28 7 l-24 20 23 -27z m57 -32 c12 -12 12 -15 0 -19 -15 -6 -39 16 -28 26 9 10 13 9 28 -7z"/>
<path d="M2640 600 c18 -12 40 -13 40 -2 0 4 -12 9 -27 10 -22 1 -24 0 -13 -8z"/>
<path d="M2648 568 c9 -9 15 -9 24 0 9 9 7 12 -12 12 -19 0 -21 -3 -12 -12z"/>
<path d="M1303 525 c-6 -14 -7 -25 -2 -25 5 0 9 -7 9 -16 0 -8 -4 -12 -10 -9 -5 3 -10 -1 -10 -9 0 -9 0 -19 -1 -23 0 -4 3 -9 8 -10 12 -4 35 36 39 71 2 17 1 25 -2 19 -9 -21 -23 -15 -17 7 7 28 0 25 -14 -5z"/>
<path d="M2530 540 c0 -6 9 -20 20 -32 l19 -21 -11 31 c-12 31 -28 43 -28 22z"/>
<path d="M1559 535 c-1 -3 -2 -8 -3 -12 -1 -5 -5 -14 -10 -22 -6 -9 -5 -12 5 -9 8 3 15 14 15 26 1 19 -4 31 -7 17z"/>
<path d="M1642 507 c15 -12 11 -40 -6 -38 -3 1 -6 -1 -6 -4 0 -3 0 -11 0 -17 1 -20 40 35 40 55 0 11 -8 17 -22 17 -21 -1 -21 -2 -6 -13z"/>
<path d="M1361 483 c1 -4 -1 -16 -6 -26 -4 -10 -5 -20 -3 -22 3 -3 10 6 16 20 7 16 8 26 1 30 -5 4 -9 3 -8 -2z"/>
<path d="M1718 463 c6 -2 12 -9 12 -14 0 -6 -4 -7 -10 -4 -6 3 -7 -1 -4 -9 3 -9 1 -16 -5 -16 -6 0 -11 -4 -11 -10 0 -19 16 -10 33 19 17 30 14 42 -12 40 -10 0 -12 -2 -3 -6z"/>
<path d="M1326 426 c-8 -32 -6 -38 12 -27 9 5 10 15 4 31 l-9 24 -7 -28z"/>
<path d="M1430 413 c0 -10 9 -24 19 -30 16 -10 20 -9 25 4 4 9 4 18 1 21 -3 3 -5 0 -5 -6 0 -7 -4 -12 -10 -12 -5 0 -10 6 -10 14 0 8 -4 18 -10 21 -5 3 -10 -2 -10 -12z"/>
<path d="M1643 395 c-9 -25 4 -29 17 -6 7 15 7 21 0 21 -6 0 -13 -7 -17 -15z"/>
<path d="M1677 397 c-3 -9 1 -18 10 -21 22 -9 25 -3 10 19 -12 15 -15 16 -20 2z"/>
<path d="M1850 395 c0 -8 5 -15 10 -15 6 0 10 7 10 15 0 8 -4 15 -10 15 -5 0 -10 -7 -10 -15z"/>
<path d="M1420 365 c0 -18 23 -45 38 -45 17 0 34 27 22 35 -6 4 -9 1 -8 -6 2 -6 -2 -13 -9 -16 -6 -2 -13 6 -15 18 -4 26 -28 38 -28 14z"/>
<path d="M1551 340 c-1 -19 -3 -22 -10 -11 -13 20 -38 22 -46 4 -8 -22 2 -28 20 -13 12 10 15 9 15 -6 0 -17 1 -17 16 -2 9 8 14 24 11 34 -4 15 -5 13 -6 -6z"/>
<path d="M1609 328 c-3 -20 -1 -34 3 -32 5 3 11 -1 14 -10 3 -8 13 -17 22 -21 13 -5 14 -4 5 6 -9 9 -9 18 -2 31 6 11 8 27 6 36 -3 12 -5 11 -6 -5 -1 -29 -28 -20 -33 10 -3 15 -6 10 -9 -15z"/>
<path d="M1736 345 c-4 -12 -1 -16 11 -13 18 3 21 20 5 26 -5 1 -12 -4 -16 -13z"/>
<path d="M2750 315 c-13 -14 -21 -27 -18 -30 6 -6 48 33 48 45 0 15 -4 13 -30 -15z"/>
<path d="M1700 320 c0 -5 5 -10 10 -10 6 0 10 -8 10 -17 0 -13 3 -14 11 -6 9 9 8 16 -4 27 -18 18 -27 20 -27 6z"/>
<path d="M1096 296 c3 -9 11 -16 16 -16 13 0 5 23 -10 28 -7 2 -10 -2 -6 -12z"/>
<path d="M1555 300 c-3 -5 -3 -15 1 -21 6 -11 23 6 24 24 0 10 -18 9 -25 -3z"/>
<path d="M845 233 c7 -38 51 -133 79 -168 25 -32 18 -5 -12 55 -16 30 -35 76 -42 103 -15 56 -36 64 -25 10z"/>
<path d="M325 210 c-10 -11 -14 -20 -9 -20 12 1 44 25 44 34 0 12 -17 6 -35 -14z"/>
<path d="M2764 166 c-9 -20 -9 -26 2 -30 7 -3 16 4 19 15 4 10 12 19 18 19 7 0 6 4 -3 10 -21 14 -24 13 -36 -14z"/>
<path d="M2890 142 c0 -10 -6 -24 -12 -31 -11 -11 -10 -12 6 -3 19 10 31 52 14 52 -4 0 -8 -8 -8 -18z"/>
<path d="M2952 140 c-6 -11 -12 -22 -12 -25 0 -11 20 6 30 26 14 25 -2 25 -18 -1z"/>
<path d="M2155 132 c-11 -4 -21 -13 -22 -19 -4 -18 5 -16 34 7 26 20 23 23 -12 12z"/>
<path d="M155 110 c-10 -11 -14 -20 -8 -20 5 0 18 9 28 20 10 11 14 20 8 20 -5 0 -18 -9 -28 -20z"/>
<path d="M2758 84 c-16 -8 -28 -21 -28 -29 0 -12 4 -11 19 4 10 10 25 21 32 23 8 3 12 8 9 11 -3 3 -17 -1 -32 -9z"/>
<path d="M194 72 c-12 -8 -38 -52 -30 -52 3 0 14 14 26 30 22 31 23 35 4 22z"/>
<path d="M273 31 c-23 -19 -29 -31 -15 -31 4 0 15 12 25 25 21 30 19 31 -10 6z"/>
<path d="M345 20 c-10 -11 -14 -20 -8 -20 5 0 18 9 28 20 10 11 14 20 8 20 -5 0 -18 -9 -28 -20z"/>
<path d="M2838 3 c12 -2 32 -2 45 0 12 2 2 4 -23 4 -25 0 -35 -2 -22 -4z"/>
</g>
</svg>